<svg xmlns="http://www.w3.org/2000/svg" viewBox="5.5 0.5 13 23" fill="none">
  <line x1="12" y1="3.4" x2="12" y2="20.6" stroke="black" stroke-width="1.15" stroke-linecap="round"/>
  <path d="M12 5.6 C 16.2 6.8, 16.6 10.0, 12 12 C 7.4 14.0, 7.8 17.2, 12 18.4" stroke="black" stroke-width="1.15" stroke-linecap="round" fill="none"/>
  <path d="M12.00 0.70 C12.65 2.75 12.65 2.75 14.70 3.40 C12.65 4.05 12.65 4.05 12.00 6.10 C11.35 4.05 11.35 4.05 9.30 3.40 C11.35 2.75 11.35 2.75 12.00 0.70 Z" fill="black"/>
  <path d="M12.00 19.10 C12.36 20.24 12.36 20.24 13.50 20.60 C12.36 20.96 12.36 20.96 12.00 22.10 C11.64 20.96 11.64 20.96 10.50 20.60 C11.64 20.24 11.64 20.24 12.00 19.10 Z" fill="black"/>
</svg>