<svg xmlns="http://www.w3.org/2000/svg" viewBox="0 0 24 24">
  <path fill="currentColor" d="M12 2.25c1.18 0 2.18.76 2.54 1.82a8.1 8.1 0 0 1 2.04.85 2.68 2.68 0 0 1 3.08.5 2.68 2.68 0 0 1 .5 3.08c.4.64.69 1.33.85 2.04A2.68 2.68 0 0 1 22.75 13c0 1.18-.76 2.18-1.82 2.54a8.1 8.1 0 0 1-.85 2.04 2.68 2.68 0 0 1-.5 3.08 2.68 2.68 0 0 1-3.08.5 8.1 8.1 0 0 1-2.04.85A2.68 2.68 0 0 1 12 23.75a2.68 2.68 0 0 1-2.54-1.82 8.1 8.1 0 0 1-2.04-.85 2.68 2.68 0 0 1-3.08-.5 2.68 2.68 0 0 1-.5-3.08 8.1 8.1 0 0 1-.85-2.04A2.68 2.68 0 0 1 1.25 13c0-1.18.76-2.18 1.82-2.54.16-.71.45-1.4.85-2.04a2.68 2.68 0 0 1 .5-3.08 2.68 2.68 0 0 1 3.08-.5c.64-.4 1.33-.69 2.04-.85A2.68 2.68 0 0 1 12 2.25Zm0 3.5a6.25 6.25 0 1 0 0 12.5 6.25 6.25 0 0 0 0-12.5Zm0 3.25a3 3 0 1 1 0 6 3 3 0 0 1 0-6Z"/>
</svg>
